PathFileType	4	(X/Y/Z)	46_1_34_p1_0-387_filt_butterworth.trc
DataRate	CameraRate	NumFrames	NumMarkers	Units	OrigDataRate	OrigDataStartFrame	OrigNumFrames
60.0	60.0	7	27	m	60.0	241	387
Frame#	Time	RHip			RKnee			RAnkle			RBigToe			RSmallToe			RHeel			LHip			LKnee			LAnkle			LBigToe			LSmallToe			LHeel			Neck			Head			Nose			RShoulder			RElbow			RWrist			RThumb			RIndex			RPinky			LShoulder			LElbow			LWrist			LThumb			LIndex			LPinky			
		X1	Y1	Z1	X2	Y2	Z2	X3	Y3	Z3	X4	Y4	Z4	X5	Y5	Z5	X6	Y6	Z6	X7	Y7	Z7	X8	Y8	Z8	X9	Y9	Z9	X10	Y10	Z10	X11	Y11	Z11	X12	Y12	Z12	X13	Y13	Z13	X14	Y14	Z14	X15	Y15	Z15	X16	Y16	Z16	X17	Y17	Z17	X18	Y18	Z18	X19	Y19	Z19	X20	Y20	Z20	X21	Y21	Z21	X22	Y22	Z22	X23	Y23	Z23	X24	Y24	Z24	X25	Y25	Z25	X26	Y26	Z26	X27	Y27	Z27	
241	4.016666666666667	0.3562756205533883	0.9664978304862717	0.387870223153417	0.35377589554224614	0.5375140077936588	0.40732853817265596	0.3576345504188713	0.09875658467980589	0.5105433613754836	0.34373236581489897	0.0827169568756733	0.36407666474453865	0.3948451704486606	0.08845913380629754	0.37223990436307736	0.3235780636235144	0.009330566723739164	0.6052034864503274	0.16123452640361838	0.9595261344017707	0.4200230400356989	0.14862895694505562	0.5279102159851584	0.43556674370726545	0.144742535835632	0.07668023923329573	0.5176524897344437	0.18157976632696704	0.11506929210752498	0.3073892892022976	0.12811370185102966	0.08715171689602115	0.3717139772849902	0.15168548333445944	0.016222428911484944	0.5822585058463812	0.31252045305072546	1.4578452877611168	0.3666162888501605	0.3217236324532732	1.7028961102789009	0.3323599500090018	0.3015862935751001	1.56512843840342	0.26752297083271426	0.4413750609638753	1.3774731174899333	0.3690502384170679	0.42263525771730615	1.1618104752333798	0.24221686384678465	0.31602035034509335	1.295134334663367	0.1839096308606499	0.2681318476996536	1.4020787324619075	0.15349941219675442	0.27853127505820435	1.413755051734867	0.10898816610961698	0.24694150602522802	1.3741429372902263	0.11264134406316771	0.1676689351594817	1.4193537543071781	0.4348214445132858	0.06793292588324784	1.1714370602240747	0.4430302862335151	0.1259350054049192	1.293450370254139	0.3132896772512183	0.13409417000425322	1.3901144482906649	0.2524091361630073	0.12952944506468592	1.3882533599271127	0.22102658580404044	0.13953101960738012	1.3660971230005794	0.1950354408486126	
242	4.033333333333333	0.3574578378337924	0.9668455564139372	0.3882128839476196	0.3541704058429637	0.5374187785680232	0.4078658285565923	0.3576570193298055	0.09912393528119362	0.5105420663718657	0.3438070351122112	0.08267771514098304	0.3640729788659688	0.3951552756597993	0.08921499611792463	0.3721104946640624	0.32317103436336364	0.008964586641084954	0.6062303914577066	0.16198428311412286	0.9596127663769762	0.41976306036406996	0.1487196709786406	0.5285567796425858	0.4352748503505172	0.1446658072446973	0.07727875517411008	0.5172139555116637	0.18181122272976538	0.11589254217400899	0.30729037580309687	0.12809508285217736	0.08721055444029885	0.3716515101175441	0.1516162209620533	0.016000592891221483	0.5821173874849115	0.31232040718574733	1.4574584221118583	0.36564532147125095	0.32162476685678976	1.7019681943733662	0.3321150986654081	0.3031397536843937	1.5659183465558861	0.2653398062536551	0.4421250368351973	1.3778566968245194	0.36938168666901466	0.4249313543820492	1.162274526799132	0.24401048073985177	0.3195055335725434	1.2938175441550015	0.18275933840863015	0.269640076471104	1.4015560567655663	0.15147029029340273	0.2822787571704019	1.4132018177747934	0.10348244834464064	0.2517559544870308	1.374954147914943	0.10981804523255703	0.16768700594153657	1.419336104956604	0.4348936651886401	0.06813982427307769	1.1707057732948962	0.44317862322650364	0.12356317410855519	1.293930976827003	0.3154035960929134	0.129243301521986	1.3915698752856682	0.25455419675113256	0.12635738342550779	1.3896797516341457	0.2229519547298459	0.13846720789674313	1.3664729618624676	0.19388557352723784	
243	4.05	0.3587265482704397	0.9672840730459242	0.3885234079503005	0.3546568368207034	0.5371453044483759	0.4086846080519912	0.35766210407196275	0.09925085185330763	0.5105080013138122	0.3438093362504696	0.08271304796270806	0.3639837325201547	0.3957746239693996	0.09008234286619735	0.3720048661956571	0.32286195792795863	0.008745580291725527	0.6070063078751483	0.16269977024809493	0.9596142998875241	0.41996454283384493	0.148781349565065	0.5293360978798011	0.4351225314936749	0.14467035940146325	0.0778743176018209	0.5169493674675086	0.18205690712484016	0.11679941912564779	0.3071562154612106	0.1280721015611652	0.08731164990730661	0.3715422990837381	0.151468859774778	0.01594401930371497	0.5820975567726484	0.3122700965121742	1.4574171185115818	0.3654058064831253	0.321488267250693	1.701334458274767	0.33178911610859707	0.3046985731209671	1.5666974710045125	0.2641842089597247	0.4429256216703149	1.3783224545818757	0.3696918503628926	0.4264988836295537	1.1637742514886005	0.24656970951833282	0.32294765909711876	1.2935830759465665	0.1816301329747722	0.27169813972372625	1.4014979784413977	0.14812295889170396	0.2858150145612017	1.4133909697171765	0.09813153007509494	0.25700544256644314	1.3767671015438787	0.1053924538952547	0.16772790602019164	1.419326357351436	0.43495802221844676	0.06836214392931596	1.1700761524568224	0.4433528898139014	0.12130389671855683	1.2949375949836603	0.31638368749724344	0.12410046802926719	1.3931458583729686	0.25724473494003586	0.12282604671105614	1.3908224285595796	0.22585074053911305	0.13727958797454948	1.3668015579082378	0.19258341669740534	
244	4.066666666666666	0.36005554622221325	0.967793876614133	0.38881055884863436	0.3552120188543473	0.536770823944334	0.4097671186391625	0.35764660365695394	0.09905901361785531	0.5104740990280049	0.3437986469342573	0.08276334693081197	0.3638960326162853	0.39658843011479145	0.09088703702142258	0.3719830296937124	0.3226597689772074	0.008613701974946989	0.6075159257223544	0.16345541526162571	0.959726791227004	0.42028490894919873	0.14881186943219651	0.5301875998255318	0.4351266755176268	0.1447985163503456	0.07833252237491861	0.5169074144114613	0.18226053518740493	0.1176765039665351	0.30700118760723927	0.12804644659668718	0.08744751256161648	0.37138825590000696	0.1512426825813807	0.01614822322355706	0.5822174502856305	0.3123060035280988	1.4577583485908134	0.3655616373840332	0.3214259239868964	1.7010470878361699	0.33162554740904426	0.3061602922822902	1.5673500036303545	0.26457734387822096	0.4436728140364439	1.378671748508304	0.36994630024810177	0.4274654926746275	1.166062764741903	0.24928488473794858	0.32617662867029806	1.2944783813791367	0.1808882877567786	0.2744507296438763	1.4019644034166425	0.1437366223310592	0.28906214708407246	1.4142333023747893	0.09289389052363714	0.2623957633290741	1.379536070409195	0.10019663106268968	0.1676694210905751	1.4193038411473307	0.43496531827399076	0.06851580364844703	1.169739242209097	0.44327633600751964	0.11936753425286249	1.2962862800298258	0.31635696285296	0.11937462382622258	1.3945920215758343	0.2600524442134017	0.11924723935104796	1.39155437460375	0.2301933019659429	0.13584849363328352	1.3670529987653919	0.1928388501367535	
245	4.083333333333333	0.3614137755411347	0.9683484166532705	0.38905276238794134	0.3558175873490396	0.5363669747725552	0.4110043746199073	0.3576163742220922	0.09861363427140822	0.510483249235456	0.3438661612399641	0.08270771941764385	0.3639887615217579	0.39746043826499167	0.09139886038338489	0.3722114583340077	0.3225512611148752	0.008524866721170234	0.6077878306116382	0.16432590360410554	0.960038595493968	0.4204018739553845	0.14882839611277723	0.5310055916237597	0.4352168154219628	0.14504878318212142	0.07863304553957261	0.5170096195516528	0.18234913942853995	0.11840791396642278	0.3068471335191758	0.12802143384030218	0.0876040710709466	0.37120738375016094	0.15093909236297465	0.01647896239172764	0.5825132693107398	0.3123438668624485	1.458373656829569	0.36569331697135105	0.32143011117216713	1.701083318108259	0.3316052752419933	0.30739954939717806	1.5678091788539805	0.266470373739005	0.44425638239211285	1.3787441435021952	0.370137454296912	0.4282813598964754	1.168773967510902	0.2515987811357883	0.3291323293554609	1.2963158484814556	0.18058254500117588	0.2779911404895508	1.402947151112611	0.13964686134947898	0.29190822333299643	1.4154502326592446	0.0884098178480701	0.26758187736528705	1.3831095089611924	0.09528721537977511	0.16733725787204629	1.4192119032428543	0.43486054781774497	0.06860453374683942	1.1698671437955785	0.44262569140649777	0.11781782350112883	1.2978001228331872	0.31550372736943705	0.11573887068591633	1.3958412165606724	0.2620139947182484	0.11591897091811942	1.3918565215635552	0.23587274989709683	0.13389883297413324	1.3671153892793926	0.1965084774933553	
246	4.1	0.3627635589360935	0.9689509097351722	0.3891895728216472	0.3564621930785935	0.5359555368316399	0.4123018522383251	0.35758228116575397	0.09815261963670763	0.5106013916718389	0.3440649716444748	0.08246253643830524	0.3644108267140097	0.398280624352791	0.09148591856549826	0.3727768613515752	0.32250570081192953	0.00845063176477483	0.6079087571754743	0.16533261617581457	0.9605336105572618	0.4202228206474307	0.14884341152818958	0.5317195048869279	0.4353287432627575	0.14536435178798007	0.07882934238012723	0.5171567526979521	0.1822971018396503	0.11886358837949092	0.3067265190302016	0.12800265425614596	0.08776024338795628	0.3710309776822669	0.1505589488628201	0.016709024321310474	0.5830114265219253	0.3123393648435158	1.4591254811361007	0.3656099872970541	0.3214569309531761	1.7014742482885028	0.3316224722252348	0.30837107283485743	1.5680495070906175	0.26927386879723075	0.44458772983335537	1.3786212106980176	0.37024956874597004	0.42936257829985	1.1715144443058578	0.253238275994071	0.3318942181435346	1.298862260356323	0.1804815775628109	0.28218640632174885	1.4045516837357936	0.13786631224960716	0.2942813992046678	1.4169053007965915	0.08591263536805334	0.2721378974825599	1.3870624865873717	0.09178986978092481	0.16659741716611198	1.4190387715097734	0.43459868692067716	0.06867114480832912	1.170422382911243	0.4413532728586719	0.11659151526318934	1.2993741925868096	0.31420595058947093	0.11369611499522878	1.3968653274469225	0.2620790418873393	0.1131004714693992	1.3918350340643393	0.24186756969264192	0.1311673217559112	1.3668735178106974	0.20387776516973508	
247	4.116666666666666	0.3640617907821468	0.9696440647890522	0.3891506744168737	0.3571308155929903	0.5355058931795714	0.4136432310980749	0.35755066668315366	0.09790286703994888	0.5108745581737931	0.34445539728036123	0.08213122881096092	0.3650625335903197	0.3989492581544736	0.09134329112677361	0.3733358362534285	0.3224977840213247	0.00839474884728077	0.6079642794354171	0.16645325032031646	0.9611814761238342	0.41984371364267836	0.14885480905484588	0.5323182331450881	0.43543738291854917	0.14567512937043506	0.07897258570408242	0.5172904883126156	0.1822258759378086	0.11893019376914439	0.3066806776694198	0.1279938125484307	0.08789240355810275	0.3708914620273529	0.1500975312463989	0.016716412702190556	0.5837245981506558	0.3122987610087333	1.4599063003477466	0.3653750205982743	0.321477424108524	1.7022710890734838	0.3316326685604038	0.3091000757510342	1.568047083329644	0.272213110814445	0.4446558833418415	1.3786191200202365	0.3702683698234139	0.43070546945384525	1.1739562017423812	0.2543019549798846	0.3344273691342864	1.3019686339541934	0.1802968492355098	0.2865927637571763	1.4070638528948676	0.13996012727477347	0.29610823861383345	1.4189648955286485	0.0866372434827712	0.2756458994906378	1.3907934671443247	0.09055926846429804	0.16542858896026713	1.4189299675231741	0.434160482430725	0.06867576491109878	1.171235927522844	0.4395933324984055	0.11564809629612283	1.300963355395564	0.3130501097091457	0.11359210918903481	1.397502262191395	0.2599263791495931	0.11113779313802079	1.3917418021183745	0.24690208554222867	0.12770930948163184	1.3664688046637363	0.21248787741436087	
